<?xml version="1.0" encoding="UTF-8" standalone="no"?><!DOCTYPE svg PUBLIC "-//W3C//DTD SVG 1.1//EN" "http://www.w3.org/Graphics/SVG/1.1/DTD/svg11.dtd"><svg width="100%" height="100%" viewBox="0 0 100 100" version="1.1" xmlns="http://www.w3.org/2000/svg" xmlns:xlink="http://www.w3.org/1999/xlink" xml:space="preserve" style="fill-rule:evenodd;clip-rule:evenodd;stroke-linejoin:round;stroke-miterlimit:1.41421;"><rect id="Artboard2" x="-28" y="-34" width="678" height="168" style="fill:none;"/><g id="new"><path d="M67.172,22.788l-4.921,24.463l21.745,12.24l-24.787,2.879l-4.921,24.464l-10.398,-22.684l-24.787,2.879l18.361,-16.899l-10.398,-22.684l21.745,12.24l18.361,-16.898Z" style="fill:#404040;"/><path d="M81.547,72.392l-0.574,6.429l5.937,2.532l-6.291,1.441l-0.573,6.429l-3.316,-5.538l-6.291,1.441l4.243,-4.864l-3.315,-5.538l5.937,2.532l4.243,-4.864Z" style="fill:#404040;"/><path d="M45.231,7.989l2.401,5.991l6.44,-0.432l-4.956,4.135l2.401,5.992l-5.464,-3.436l-4.956,4.135l1.579,-6.259l-5.464,-3.436l6.44,-0.432l1.579,-6.258Z" style="fill:#404040;"/><path d="M85.37,35.292l-0.275,3.075l2.84,1.211l-3.009,0.689l-0.274,3.075l-1.586,-2.649l-3.009,0.689l2.029,-2.326l-1.585,-2.649l2.839,1.211l2.03,-2.326Z" style="fill:#404040;"/><path d="M80.007,11.777l2.399,1.943l2.589,-1.682l-1.107,2.882l2.4,1.943l-3.083,-0.161l-1.107,2.882l-0.799,-2.982l-3.083,-0.162l2.589,-1.681l-0.798,-2.982Z" style="fill:#404040;"/><path d="M13.619,19.737l2.782,1.337l2.132,-2.233l-0.412,3.06l2.783,1.337l-3.037,0.554l-0.412,3.059l-1.465,-2.717l-3.038,0.554l2.132,-2.233l-1.465,-2.718Z" style="fill:#404040;"/><path d="M23.059,48.51l-2.929,0.974l0.021,3.088l-1.832,-2.485l-2.929,0.974l1.797,-2.51l-1.832,-2.485l2.943,0.934l1.797,-2.511l0.021,3.087l2.943,0.934Z" style="fill:#404040;"/><path d="M35.611,80.559l1.541,2.675l3.021,-0.64l-2.068,2.293l1.542,2.674l-2.82,-1.257l-2.067,2.292l0.325,-3.07l-2.82,-1.257l3.021,-0.64l0.325,-3.07Z" style="fill:#404040;"/><path d="M17.072,85.06l-0.237,2.655l2.452,1.046l-2.599,0.595l-0.236,2.655l-1.369,-2.287l-2.599,0.595l1.753,-2.009l-1.369,-2.287l2.451,1.046l1.753,-2.009Z" style="fill:#404040;"/></g></svg>