<?xml version="1.0" encoding="UTF-8" standalone="no"?><!DOCTYPE svg PUBLIC "-//W3C//DTD SVG 1.1//EN" "http://www.w3.org/Graphics/SVG/1.1/DTD/svg11.dtd"><svg width="100%" height="100%" viewBox="0 0 100 100" version="1.1" xmlns="http://www.w3.org/2000/svg" xmlns:xlink="http://www.w3.org/1999/xlink" xml:space="preserve" style="fill-rule:evenodd;clip-rule:evenodd;stroke-linejoin:round;stroke-miterlimit:1.41421;"><rect id="Artboard2" x="-357" y="-34" width="678" height="168" style="fill:none;"/><g id="tools"><path d="M8.045,19.357c5.069,-4.538 12.517,-5.977 19.151,-3.07c5.787,2.537 9.562,7.773 10.496,13.585l53.321,22.749c4.894,2.145 7.126,7.859 4.981,12.753c-2.145,4.894 -7.86,7.126 -12.754,4.981l-53.321,-22.748c-4.907,3.252 -11.315,4.024 -17.103,1.488c-6.633,-2.908 -10.623,-9.36 -10.721,-16.163l15.798,6.924c1.873,0.821 4.06,-0.033 4.881,-1.906l2.975,-6.787c0.821,-1.873 -0.033,-4.06 -1.906,-4.881l-15.798,-6.925Z" style="fill:#404040;"/><path d="M31.922,53.051l7.688,3.185c0.273,0.626 0.558,1.248 0.854,1.865c0.416,0.867 0.854,1.725 1.315,2.57c0.383,0.703 0.781,1.398 1.196,2.083c2.85,4.713 6.47,9.007 10.892,12.319c0.747,0.559 1.516,1.09 2.305,1.588c0.858,0.543 1.741,1.047 2.644,1.51c0.491,0.251 0.987,0.488 1.489,0.717l0.07,0.031c0.492,-0.222 0.978,-0.453 1.459,-0.697c0.907,-0.461 1.793,-0.964 2.655,-1.504c0.792,-0.498 1.564,-1.027 2.315,-1.586c2.086,-1.553 3.995,-3.325 5.729,-5.258l5.495,2.276c0.125,0.054 0.251,0.107 0.377,0.157c-2.065,2.507 -4.37,4.814 -6.914,6.839c-2.37,1.886 -4.942,3.518 -7.671,4.832c-0.59,0.285 -1.188,0.554 -1.791,0.808c-0.087,0.037 -0.174,0.073 -0.261,0.109c-0.155,0.064 -0.335,0.14 -0.496,0.19c-0.33,0.103 -0.678,0.148 -1.024,0.134c-0.259,-0.011 -0.517,-0.055 -0.765,-0.132c-0.135,-0.042 -0.245,-0.087 -0.373,-0.139c-0.198,-0.082 -0.32,-0.132 -0.517,-0.216c-0.602,-0.256 -1.196,-0.527 -1.784,-0.812c-2.718,-1.321 -5.279,-2.958 -7.638,-4.845c-4.283,-3.425 -7.882,-7.653 -10.802,-12.284c-1.941,-3.079 -3.589,-6.341 -4.959,-9.713c-0.539,-1.326 -1.035,-2.669 -1.488,-4.027Zm9.396,-26.467c0.513,-0.088 1.024,-0.186 1.532,-0.298c0.8,-0.176 1.593,-0.383 2.375,-0.625c1.15,-0.355 2.275,-0.785 3.374,-1.273c1.507,-0.669 2.964,-1.443 4.392,-2.265c1.951,-1.124 3.849,-2.339 5.736,-3.567l0.231,-0.137c0.215,-0.102 0.266,-0.135 0.494,-0.208c0.255,-0.082 0.521,-0.13 0.789,-0.142c0.089,-0.004 0.179,0 0.268,0c0.089,0.008 0.178,0.016 0.267,0.024c0.234,0.042 0.296,0.045 0.523,0.118c0.17,0.055 0.335,0.125 0.493,0.208c0.079,0.042 0.154,0.091 0.231,0.137c0.335,0.217 0.669,0.435 1.004,0.651c1.729,1.112 3.47,2.207 5.261,3.217c1.329,0.75 2.687,1.453 4.087,2.063c1.027,0.447 2.075,0.842 3.145,1.172c1.076,0.333 2.171,0.601 3.278,0.811c1.53,0.29 3.079,0.473 4.631,0.596c1.82,0.144 3.646,0.204 5.472,0.235l0.296,0.004c0.089,0.005 0.178,0.006 0.266,0.016c0.266,0.027 0.528,0.09 0.777,0.186c0.249,0.096 0.485,0.225 0.701,0.383c0.576,0.423 0.99,1.049 1.153,1.745c0.074,0.316 0.082,0.639 0.097,0.961c0.021,0.444 0.036,0.889 0.044,1.334c0.042,2.169 -0.055,4.34 -0.266,6.499c-0.239,2.456 -0.626,4.897 -1.143,7.31c-0.108,0.503 -0.221,1.004 -0.341,1.505c-0.374,-0.213 -0.758,-0.407 -1.15,-0.588l-0.19,-0.085l-4.295,-1.779c0.089,-0.405 0.174,-0.811 0.255,-1.218c0.675,-3.392 1.065,-6.842 1.098,-10.301c-0.287,-0.011 -0.574,-0.024 -0.861,-0.037c-2.184,-0.106 -4.366,-0.284 -6.526,-0.632c-1.938,-0.311 -3.853,-0.761 -5.717,-1.377c-1.063,-0.352 -2.108,-0.755 -3.135,-1.202c-1.667,-0.726 -3.282,-1.565 -4.862,-2.463c-1.604,-0.912 -3.172,-1.886 -4.727,-2.879c-0.129,0.083 -0.258,0.165 -0.387,0.248c-2.749,1.744 -5.55,3.432 -8.515,4.787c-0.486,0.223 -0.977,0.436 -1.472,0.638l-8.626,-3.573l-0.022,-0.081l-0.035,-0.118Z" style="fill:#404040;"/></g></svg>