<svg viewBox="0 0 16 16" width="16px" height="16px"><path d="M14.198,1.032c0.211,0 0.393,0.076 0.544,0.227c0.151,0.151 0.227,0.333 0.227,0.544l0,12.395c0,0.211 -0.076,0.393 -0.227,0.544c-0.151,0.151 -0.333,0.227 -0.544,0.227l-3.548,0l0,-5.399l1.806,0l0.272,-2.105l-2.078,0l0,-1.343c0,-0.338 0.071,-0.593 0.213,-0.762c0.142,-0.169 0.419,-0.254 0.83,-0.254l1.107,-0.009l0,-1.878c-0.381,-0.055 -0.919,-0.082 -1.615,-0.082c-0.822,0 -1.48,0.242 -1.973,0.726c-0.493,0.484 -0.74,1.167 -0.74,2.051l0,1.551l-1.814,0l0,2.105l1.814,0l0,5.399l-6.669,0c-0.211,0 -0.393,-0.076 -0.544,-0.227c-0.151,-0.151 -0.227,-0.333 -0.227,-0.544l0,-12.395c0,-0.211 0.076,-0.393 0.227,-0.544c0.151,-0.151 0.333,-0.227 0.544,-0.227l12.395,0Z" style="fill:#828282;fill-rule:nonzero;"/></svg>
